<svg width="151.000000" height="15.000000" viewBox="0 0 151 15" fill="none" xmlns="http://www.w3.org/2000/svg" xmlns:xlink="http://www.w3.org/1999/xlink">
	<desc>
			Created with Pixso.
	</desc>
	<defs/>
	<path id="CRYPTOFOLIO" d="M4.03 13.57Q5.55 14.23 7.35 14.23Q9.18 14.23 10.66 13.59Q11.53 13.22 12.24 12.63Q12.73 12.23 13.14 11.73L11.06 9.82Q10.26 10.74 9.26 11.15Q8.47 11.48 7.54 11.48Q6.37 11.48 5.43 11.02Q5.32 10.96 5.22 10.9Q4.69 10.61 4.29 10.2Q3.9 9.81 3.62 9.32Q3.57 9.22 3.52 9.13Q3.05 8.18 3.05 6.99Q3.05 5.83 3.51 4.89Q3.56 4.78 3.62 4.67Q3.91 4.16 4.32 3.76Q4.71 3.37 5.22 3.09Q5.32 3.03 5.43 2.97Q6.37 2.52 7.54 2.52Q8.48 2.52 9.29 2.85Q10.28 3.26 11.06 4.16L13.14 2.24Q12.75 1.78 12.3 1.4Q11.57 0.79 10.66 0.4Q9.2 -0.24 7.37 -0.24Q5.49 -0.24 3.93 0.47Q3.7 0.57 3.48 0.69Q2.5 1.22 1.76 1.97Q1.19 2.55 0.76 3.27Q0.54 3.63 0.37 4.02Q-0.22 5.37 -0.22 6.99Q-0.22 8.6 0.36 9.95Q0.54 10.35 0.76 10.72Q1.19 11.43 1.75 12.01Q2.49 12.77 3.48 13.31Q3.75 13.45 4.03 13.57ZM73.43 13.51Q75.02 14.23 76.95 14.23Q78.89 14.23 80.49 13.49Q80.68 13.4 80.86 13.3Q81.91 12.73 82.68 11.91Q83.2 11.37 83.6 10.7Q83.88 10.25 84.08 9.76Q84.6 8.48 84.6 6.99Q84.6 5.52 84.09 4.26Q83.89 3.76 83.6 3.29Q83.2 2.62 82.67 2.07Q81.9 1.26 80.86 0.7Q80.66 0.59 80.46 0.5Q78.87 -0.24 76.95 -0.24Q75.04 -0.24 73.46 0.48Q73.23 0.58 73.01 0.7Q71.95 1.27 71.17 2.1Q70.66 2.64 70.27 3.29Q70.01 3.73 69.82 4.2Q69.29 5.49 69.29 6.99Q69.29 8.52 69.83 9.82Q70.02 10.28 70.27 10.7Q70.66 11.35 71.16 11.88Q71.94 12.72 73.01 13.3Q73.22 13.41 73.43 13.51ZM103.25 13.51Q104.84 14.23 106.77 14.23Q108.71 14.23 110.31 13.49Q110.5 13.4 110.68 13.3Q111.73 12.73 112.51 11.91Q113.02 11.37 113.42 10.7Q113.7 10.25 113.9 9.76Q114.42 8.48 114.42 6.99Q114.42 5.52 113.91 4.26Q113.71 3.76 113.42 3.29Q113.02 2.62 112.49 2.07Q111.72 1.26 110.68 0.7Q110.48 0.59 110.28 0.5Q108.7 -0.24 106.77 -0.24Q104.86 -0.24 103.28 0.48Q103.05 0.58 102.83 0.7Q101.77 1.27 100.99 2.1Q100.48 2.64 100.09 3.29Q99.83 3.73 99.64 4.2Q99.11 5.49 99.11 6.99Q99.11 8.52 99.65 9.82Q99.84 10.28 100.09 10.7Q100.48 11.35 100.98 11.88Q101.77 12.72 102.83 13.3Q103.04 13.41 103.25 13.51ZM139.22 13.51Q140.81 14.23 142.74 14.23Q144.68 14.23 146.28 13.49Q146.47 13.4 146.65 13.3Q147.7 12.73 148.48 11.91Q148.99 11.37 149.39 10.7Q149.67 10.25 149.87 9.76Q150.39 8.48 150.39 6.99Q150.39 5.52 149.88 4.26Q149.68 3.76 149.39 3.29Q148.99 2.62 148.46 2.07Q147.69 1.26 146.65 0.7Q146.45 0.59 146.25 0.5Q144.67 -0.24 142.74 -0.24Q140.83 -0.24 139.25 0.48Q139.02 0.58 138.8 0.7Q137.74 1.27 136.96 2.1Q136.45 2.64 136.06 3.29Q135.8 3.73 135.61 4.2Q135.08 5.49 135.08 6.99Q135.08 8.52 135.62 9.82Q135.81 10.28 136.06 10.7Q136.45 11.35 136.95 11.88Q137.74 12.72 138.8 13.3Q139.01 13.41 139.22 13.51ZM21.69 10.09L24.39 14L27.86 14L24.72 9.49Q25.85 9.01 26.56 8.17Q26.71 7.98 26.85 7.77Q26.93 7.65 27 7.53Q27.6 6.47 27.6 5.07Q27.6 3.67 27 2.61Q26.94 2.49 26.86 2.38Q26.72 2.16 26.56 1.96Q25.86 1.12 24.75 0.62Q23.39 0 21.52 0L15.47 0L15.47 14L18.71 14L18.71 10.09L21.69 10.09ZM36.83 14L36.83 9.03L42.27 0L39.09 0L35.35 6.22L31.61 0L28.18 0L33.6 9L33.6 14L36.83 14ZM52.93 0.62Q51.57 0 49.7 0L43.65 0L43.65 14L46.89 14L46.89 10.13L49.7 10.13Q51.57 10.13 52.93 9.53Q54.01 9.05 54.7 8.24Q54.88 8.02 55.04 7.77Q55.15 7.6 55.24 7.43Q55.78 6.4 55.78 5.07Q55.78 3.67 55.18 2.61Q55.12 2.49 55.04 2.38Q54.9 2.16 54.74 1.96Q54.04 1.12 52.93 0.62ZM56.27 2.63L60.76 2.63L60.76 14L63.99 14L63.99 2.63L68.48 2.63L68.48 0L56.27 0L56.27 2.63ZM90.44 6.29L90.44 2.59L97.78 2.59L97.78 0L87.2 0L87.2 14L90.44 14L90.44 8.9L96.92 8.9L96.92 6.29L90.44 6.29ZM120.26 0L117.02 0L117.02 14L127.27 14L127.27 11.35L120.26 11.35L120.26 0ZM132.49 0L129.25 0L129.25 14L132.49 14L132.49 0ZM78.69 11.15Q77.89 11.48 76.95 11.48Q75.99 11.48 75.17 11.13Q74.93 11.03 74.71 10.9Q74.24 10.64 73.87 10.28Q73.44 9.86 73.13 9.32Q73.08 9.22 73.03 9.13Q72.56 8.18 72.56 6.99Q72.56 5.83 73.02 4.89Q73.07 4.78 73.13 4.67Q73.45 4.1 73.9 3.68Q74.26 3.34 74.71 3.09Q74.93 2.96 75.17 2.86Q75.99 2.52 76.95 2.52Q77.89 2.52 78.69 2.84Q78.94 2.95 79.18 3.09Q79.63 3.34 79.99 3.68Q80.44 4.1 80.76 4.67Q80.82 4.78 80.87 4.89Q81.33 5.83 81.33 6.99Q81.33 8.18 80.86 9.13Q80.81 9.22 80.76 9.32Q80.45 9.86 80.02 10.28Q79.65 10.64 79.18 10.9Q78.94 11.04 78.69 11.15ZM108.51 11.15Q107.71 11.48 106.77 11.48Q105.81 11.48 104.99 11.13Q104.75 11.03 104.53 10.9Q104.06 10.64 103.69 10.28Q103.26 9.86 102.95 9.32Q102.9 9.22 102.85 9.13Q102.38 8.18 102.38 6.99Q102.38 5.83 102.84 4.89Q102.89 4.78 102.95 4.67Q103.27 4.1 103.73 3.68Q104.08 3.34 104.53 3.09Q104.75 2.96 104.99 2.86Q105.81 2.52 106.77 2.52Q107.71 2.52 108.51 2.84Q108.76 2.95 109 3.09Q109.45 3.34 109.81 3.68Q110.26 4.1 110.58 4.67Q110.64 4.78 110.69 4.89Q111.15 5.83 111.15 6.99Q111.15 8.18 110.68 9.13Q110.63 9.22 110.58 9.32Q110.27 9.86 109.84 10.28Q109.47 10.64 109 10.9Q108.76 11.04 108.51 11.15ZM144.48 11.15Q143.67 11.48 142.74 11.48Q141.78 11.48 140.96 11.13Q140.72 11.03 140.5 10.9Q140.03 10.64 139.66 10.28Q139.23 9.86 138.92 9.32Q138.87 9.22 138.82 9.13Q138.35 8.18 138.35 6.99Q138.35 5.83 138.81 4.89Q138.86 4.78 138.92 4.67Q139.24 4.1 139.7 3.68Q140.05 3.34 140.5 3.09Q140.72 2.96 140.96 2.86Q141.78 2.52 142.74 2.52Q143.67 2.52 144.48 2.84Q144.73 2.95 144.97 3.09Q145.42 3.34 145.78 3.68Q146.23 4.1 146.55 4.67Q146.61 4.78 146.66 4.89Q147.12 5.83 147.12 6.99Q147.12 8.18 146.65 9.13Q146.6 9.22 146.55 9.32Q146.24 9.86 145.81 10.28Q145.44 10.64 144.97 10.9Q144.73 11.04 144.48 11.15ZM23.91 3.64Q24.32 4.21 24.32 5.07Q24.32 5.9 23.94 6.46Q23.78 6.69 23.56 6.88Q22.8 7.52 21.34 7.52L18.71 7.52L18.71 2.63L21.34 2.63Q22.8 2.63 23.56 3.27Q23.77 3.44 23.91 3.64ZM51.74 6.87Q50.98 7.5 49.52 7.5L46.89 7.5L46.89 2.63L49.52 2.63Q50.98 2.63 51.74 3.27Q51.95 3.44 52.09 3.64Q52.5 4.21 52.5 5.07Q52.5 5.91 52.11 6.47Q51.96 6.69 51.74 6.87Z" fill="#87CEEB" fill-opacity="1.000000" fill-rule="evenodd"/>
</svg>
